<?xml version="1.0" encoding="UTF-8" standalone="no"?>
<svg
   xmlns:dc="http://purl.org/dc/elements/1.1/"
   xmlns:cc="http://creativecommons.org/ns#"
   xmlns:rdf="http://www.w3.org/1999/02/22-rdf-syntax-ns#"
   xmlns:svg="http://www.w3.org/2000/svg"
   xmlns="http://www.w3.org/2000/svg"
   xmlns:sodipodi="http://sodipodi.sourceforge.net/DTD/sodipodi-0.dtd"
   xmlns:inkscape="http://www.inkscape.org/namespaces/inkscape"
   sodipodi:docname="drawing.svg"
   inkscape:version="1.0 (4035a4fb49, 2020-05-01)"
   id="svg8"
   version="1.1"
   viewBox="0 0 411.67047 69.824776"
   height="69.824776mm"
   width="411.67047mm">
  <defs
     id="defs2" />
  <sodipodi:namedview
     borderlayer="false"
     showborder="true"
     inkscape:showpageshadow="false"
     inkscape:window-maximized="1"
     inkscape:window-y="-8"
     inkscape:window-x="1912"
     inkscape:window-height="1017"
     inkscape:window-width="1920"
     showgrid="false"
     inkscape:document-rotation="0"
     inkscape:current-layer="layer1"
     inkscape:document-units="mm"
     inkscape:cy="-63.525355"
     inkscape:cx="988.52386"
     inkscape:zoom="0.7"
     inkscape:pageshadow="2"
     inkscape:pageopacity="0.0"
     borderopacity="1.0"
     bordercolor="#666666"
     pagecolor="#ffffff"
     id="base" />
  <metadata
     id="metadata5">
    <rdf:RDF>
      <cc:Work
         rdf:about="">
        <dc:format>image/svg+xml</dc:format>
        <dc:type
           rdf:resource="http://purl.org/dc/dcmitype/StillImage" />
        <dc:title></dc:title>
      </cc:Work>
    </rdf:RDF>
  </metadata>
  <g
     transform="translate(51.537047,-164.15483)"
     id="layer1"
     inkscape:groupmode="layer"
     inkscape:label="Layer 1">
    <path
       id="path149"
       d="m 211.61449,231.82225 c 0.10526,-0.32742 3.2625,-11.41414 7.01609,-24.63715 3.75359,-13.22301 6.87184,-24.08895 6.92941,-24.14653 0.0576,-0.0576 4.45254,-0.0734 9.76656,-0.0352 l 9.66187,0.0694 -6.90909,24.66908 -6.90909,24.66908 -9.87356,0.003 -9.87356,0.003 0.19137,-0.59531 z"
       style="fill:#d71921;fill-opacity:1;stroke-width:1" />
    <path
       id="path147"
       d="m 177.8567,232.16904 c 0,-0.24355 12.98359,-46.67843 13.52429,-48.36867 l 0.27508,-0.85989 h 9.76906 c 5.37299,0 9.76907,0.0603 9.76907,0.13397 0,0.0737 -3.09563,11.15944 -6.87917,24.635 -3.78354,13.47556 -6.87916,24.54761 -6.87916,24.60457 0,0.057 -4.40532,0.10354 -9.78959,0.10354 -5.92827,0 -9.78958,-0.098 -9.78958,-0.24852 z"
       style="fill:#d71921;fill-opacity:1;stroke-width:1" />
    <path
       id="path145"
       d="m 109.24475,232.50909 c -0.0988,-0.0988 -0.17972,-15.51894 -0.17972,-34.26688 v -34.08715 h 9.525 9.525 v 16.40417 c 0,9.675 0.0987,16.40416 0.24071,16.40416 0.13239,0 2.9534,-3.15515 6.26892,-7.01145 l 6.02821,-7.01146 h 17.94046 c 11.40176,0 17.94045,0.0934 17.94045,0.25639 0,0.21333 -2.60741,9.51735 -6.95394,24.81375 -0.46533,1.63759 -0.95567,2.94089 -1.08964,2.89623 -0.23259,-0.0775 -2.45711,-5.30059 -7.48801,-17.58148 -1.26678,-3.09231 -2.38638,-5.62239 -2.48801,-5.62239 -0.31283,0 -13.99533,14.0718 -13.98965,14.3877 0.003,0.16317 1.64004,2.51509 3.63802,5.22649 1.99798,2.7114 6.90691,9.37428 10.90873,14.80642 4.00183,5.43213 7.3148,10.03139 7.36217,10.22056 0.0698,0.27886 -1.95845,0.33088 -10.71563,0.27483 l -10.80175,-0.0691 -5.37246,-7.14375 c -2.95486,-3.92906 -5.91324,-7.84343 -6.57418,-8.6986 l -1.20172,-1.55486 -1.82205,1.80809 -1.82205,1.80809 -0.0704,6.89052 -0.0704,6.89051 -9.27914,0.0695 c -5.10352,0.0382 -9.36,-0.0114 -9.45885,-0.11024 z"
       style="fill:#000000;stroke-width:1" />
    <path
       id="path143"
       d="m 10.904618,207.81461 v -24.87413 h 8.995834 8.995833 v 3.175 c 0,1.74625 0.09274,3.175 0.206081,3.175 0.113345,0 0.976548,-0.7841 1.918229,-1.74245 3.372792,-3.43248 6.546845,-5.16234 10.417215,-5.67739 2.447052,-0.32564 6.206395,-0.0243 7.514233,0.60234 l 0.714033,0.34212 0.07003,8.00019 c 0.07753,8.85758 0.178761,8.38761 -1.642747,7.62654 -4.173961,-1.744 -9.707867,-1.40495 -12.873321,0.78872 -1.907453,1.32186 -3.62308,3.69999 -4.566121,6.32937 -0.181933,0.50726 -0.336622,5.5488 -0.426278,13.89306 l -0.140724,13.09687 -9.591146,0.0694 -9.591146,0.0695 z"
       style="fill:#000000;stroke-width:1" />
    <path
       id="path141"
       d="m -51.537047,198.4186 v -34.26354 h 9.525 9.524999 v 16.40417 c 0,9.02229 0.101907,16.40416 0.22646,16.40416 0.227891,0 1.183605,-1.08568 8.326503,-9.45885 l 3.893463,-4.56406 h 10.9967535 c 6.475896,0 10.960494,0.0987 10.908556,0.24021 -0.04851,0.13212 -4.136318,4.37968 -9.084027,9.43902 -4.9477085,5.05933 -8.9822945,9.33856 -8.9657505,9.50938 0.02856,0.29481 1.78902,2.69939 16.02573848,21.88918 3.32028802,4.47545 6.03688702,8.25568 6.03688702,8.40053 0,0.17045 -3.818398,0.26335 -10.824728,0.26335 H -15.771922 l -6.509096,-8.74238 c -4.5347,-6.09056 -6.609545,-8.6788 -6.840252,-8.53281 -0.182136,0.11526 -1.013946,0.9347 -1.848467,1.82098 l -1.517311,1.61143 v 6.92138 6.9214 h -9.524999 -9.525 z"
       style="fill:#000000;stroke-width:1" />
    <path
       transform="scale(0.26458333)"
       d="m 1156.207,620.42773 0.2539,129.25 0.2539,129.25 h 33.5 33.5 l 0.2676,-9 c 0.1472,-4.94997 0.5014,-9.64178 0.7871,-10.42773 0.3719,-1.0227 2.0019,-0.006 5.7325,3.58008 12.9626,12.45936 24.3942,18.20508 40.2128,20.20898 3.8501,0.48771 7.461,0.94413 8.0254,1.01367 2.6466,0.32622 18.514,-2.1144 22.9746,-3.5332 10.9014,-3.46738 20.711,-9.4869 29.0215,-17.80859 12.1212,-12.13727 19.8681,-25.07682 24.8711,-41.54883 10.269,-33.81007 5.9536,-74.1501 -10.664,-99.69922 -11.1334,-17.11699 -25.8961,-28.16647 -44.1329,-33.03125 -9.1667,-2.44528 -30.921,-2.123 -39.9257,0.5918 -8.012,2.41549 -16.932,7.14282 -25.8086,13.67773 l -6.3614,4.6836 -0.2617,-43.60352 -0.2597,-43.60352 h -35.9922 z m -123.3691,66.50391 c -9.5881,-0.004 -18.9987,0.75532 -25.3633,2.28125 -36.73148,8.80668 -63.49484,32.98194 -73.91405,66.76563 -2.60448,8.44512 -2.76267,10.05059 -2.80274,28.44921 -0.0457,21.08962 0.90146,26.61376 7.06836,41.26563 12.24798,29.0999 42.32981,51.24145 77.03323,56.70117 v 0.002 c 3.22,0.50646 14.6305,0.75898 25.3554,0.56055 20.9624,-0.38804 28.2737,-1.73301 44,-8.0918 22.1254,-8.9461 43.2576,-28.74306 49.4668,-46.34179 2.7028,-7.66046 5.3643,-7.09375 -33.2714,-7.09375 h -34.8028 l -3.3281,3.43359 c -5.6614,5.84107 -11.9887,7.99062 -23.5645,8.00195 -8.1934,0.008 -11.0746,-0.41858 -15.9492,-2.35937 -10.2075,-4.06405 -19.1304,-14.53282 -21.1601,-24.82617 l -0.6407,-3.25 h 68.625 68.625 V 792.002 c 0,-19.38455 -3.3778,-35.58776 -10.4492,-50.125 -13.3402,-27.42425 -37.3915,-45.90754 -68.498,-52.64062 -7.0749,-1.53224 -16.8416,-2.3006 -26.4297,-2.30469 z m 2.1406,47.65039 c 11.0895,0.25514 20.0849,4.78543 25.8145,13.09961 3.9771,5.7713 6.3567,14.54023 4.2988,15.84375 -1.3893,0.8801 -60.4071,1.14368 -62.5117,0.2793 -0.7759,-0.31862 -0.8704,-1.63783 -0.2989,-4.18164 3.2815,-14.60478 13.4286,-23.68154 27.8204,-24.88672 1.6662,-0.13954 3.2927,-0.19075 4.8769,-0.1543 z m 222.9297,7.73633 c 20.0589,-0.003 31.2781,15.49217 31.3008,43.22461 0.015,19.813 -7.1848,34.80485 -19.457,40.51953 -5.5543,2.58637 -16.4166,3.14604 -22.0372,1.13477 -13.5021,-4.83171 -21.5203,-20.57173 -21.4863,-42.17774 0.026,-15.89132 4.0031,-27.42775 12.1524,-35.25391 5.8056,-5.5754 10.7106,-7.44628 19.5273,-7.44726 z"
       style="fill:#000000;stroke-width:3.77953"
       id="path139" />
    <path
       transform="scale(0.26458333)"
       d="m 295.67969,686.69531 c -18.27584,0.0894 -36.6976,3.02827 -51.46485,8.87891 -23.51862,9.31786 -40.39048,29.69088 -42.62109,51.46289 l -0.65625,6.39062 h 33.13867 33.13867 v -2.84961 c 0,-4.73075 5.10624,-10.5844 12.33789,-14.14453 5.61221,-2.76291 7.51878,-3.1846 14.54883,-3.21484 6.79501,-0.0297 8.97118,0.3945 13.58203,2.65039 14.36273,7.02705 15.46501,19.09383 2.19336,24 -2.28975,0.84646 -17.8871,4.27237 -34.66211,7.61328 -42.15547,8.39577 -47.86058,9.96784 -58.82422,16.22266 -9.18975,5.24285 -17.90174,15.81021 -20.75781,25.17773 -10.92095,35.8193 7.16478,65.64087 44.58203,73.50977 7.45733,1.56816 11.7577,1.88142 20,1.45898 19.11614,-0.97973 31.65669,-5.27235 49.78321,-17.04297 4.55643,-2.95876 8.70127,-5.38086 9.21093,-5.38086 0.50966,0 1.05787,3.93749 1.2168,8.75 l 0.28906,8.75 h 34.5 34.5 v -65.5 c 0,-50.72507 -0.3017,-66.96619 -1.33593,-72 -1.69301,-8.23989 -7.81656,-21.25582 -12.54883,-26.67578 -5.2805,-6.04785 -14.93366,-13.03913 -24.11524,-17.46484 -14.79774,-7.13283 -35.32253,-10.69307 -56.03515,-10.5918 z m 23.6914,108.73242 c 1.50347,0 1.84281,0.78456 1.83789,4.25 -0.0241,17.71488 -8.023,32.3487 -20.82031,38.0918 -13.04113,5.85252 -31.20495,3.36588 -36.70312,-5.02539 -1.0799,-1.64814 -1.86431,-4.72677 -1.9043,-7.48242 -0.11714,-8.0778 4.96949,-12.59375 19.43359,-17.25391 4.12501,-1.32899 13.98287,-4.70316 21.90625,-7.49804 7.92337,-2.79489 15.23587,-5.08204 16.25,-5.08204 z"
       style="fill:#000000;stroke-width:3.77953"
       id="path131" />
  </g>
</svg>
